<?xml version="1.0" standalone="no"?>
<!DOCTYPE svg PUBLIC "-//W3C//DTD SVG 20010904//EN"
 "http://www.w3.org/TR/2001/REC-SVG-20010904/DTD/svg10.dtd">
<svg version="1.0" xmlns="http://www.w3.org/2000/svg"
 width="66.000000pt" height="74.000000pt" viewBox="0 0 66.000000 74.000000"
 preserveAspectRatio="xMidYMid meet">
<metadata>
Created by potrace 1.10, written by Peter Selinger 2001-2011
</metadata>
<g transform="translate(0.000000,74.000000) scale(0.100000,-0.100000)"
fill="#ffffff" stroke="none">
<path d="M291 705 c-19 -8 -50 -30 -70 -48 -22 -19 -58 -39 -86 -46 -110 -28
-120 -45 -42 -72 26 -8 45 -18 41 -21 -10 -10 -44 -159 -44 -193 0 -17 9 -58
20 -91 12 -32 19 -67 16 -77 -3 -12 3 -21 20 -27 14 -6 27 -16 30 -25 10 -26
78 -40 127 -25 59 17 173 96 196 136 13 21 25 32 34 28 8 -3 26 8 41 26 21 25
26 42 26 84 0 28 5 57 10 62 6 6 11 40 12 76 1 56 -3 74 -28 115 -15 26 -28
55 -29 63 0 8 -6 14 -13 12 -7 -1 -27 5 -44 14 -45 23 -174 29 -217 9z m127
-23 c2 -7 -2 -12 -9 -12 -7 0 -9 -3 -6 -6 4 -4 14 -1 23 7 15 12 17 12 12 -1
-3 -10 -17 -14 -37 -13 -38 1 -43 5 -36 25 7 17 47 17 53 0z m-100 -22 c-23
-29 -53 -36 -53 -12 0 13 40 39 63 41 9 1 5 -10 -10 -29z m197 2 c37 -23 87
-113 83 -148 l-3 -26 -27 21 c-14 12 -33 21 -41 21 -21 0 -77 70 -77 96 0 31
10 54 24 54 6 0 25 -8 41 -18z m-146 -18 c6 4 11 3 11 -3 0 -5 11 -8 25 -5 18
3 25 0 25 -11 0 -11 -6 -15 -17 -11 -10 3 -35 8 -55 12 -38 6 -49 18 -25 27 6
2 15 0 18 -6 4 -5 12 -6 18 -3z m-168 -59 c-81 -60 -137 -62 -73 -3 29 27 73
46 111 47 18 1 11 -8 -38 -44z m151 29 c3 -3 -14 -24 -39 -47 l-46 -42 94 -12
c52 -7 99 -14 104 -15 6 -1 23 2 37 5 23 6 35 1 68 -29 32 -29 38 -40 30 -54
-6 -12 -17 -16 -33 -13 -14 3 -27 1 -30 -4 -3 -5 7 -9 21 -8 25 0 27 -3 27
-40 1 -48 -23 -95 -47 -95 -10 0 -18 6 -18 13 0 6 -9 -7 -19 -29 -33 -73 -165
-156 -248 -156 -65 0 -94 32 -128 140 -17 55 -25 98 -22 121 7 50 32 156 41
169 4 6 29 9 64 7 37 -3 47 -2 27 3 l-30 7 53 43 c50 39 80 51 94 36z m98 -32
c0 -18 -57 -62 -80 -62 -23 0 -23 1 10 35 31 32 70 47 70 27z m40 -37 c16 -20
8 -29 -19 -20 -12 4 -18 12 -14 21 7 18 17 18 33 -1z"/>
<path d="M334 479 c-4 -7 0 -9 13 -5 11 3 39 -1 64 -9 24 -9 39 -12 34 -7 -12
11 -72 32 -91 32 -7 0 -16 -5 -20 -11z"/>
<path d="M164 457 c16 -12 16 -14 2 -26 -18 -15 -22 -41 -6 -41 5 0 7 6 5 13
-6 15 32 41 40 27 3 -6 -1 -10 -9 -10 -9 0 -16 -7 -16 -15 0 -9 9 -15 25 -15
37 0 32 31 -10 58 -37 24 -61 31 -31 9z"/>
<path d="M355 406 c-16 -12 -18 -17 -7 -27 10 -11 12 -9 12 5 0 15 7 17 40 14
42 -4 42 6 0 17 -15 3 -33 0 -45 -9z"/>
<path d="M542 361 c-22 -18 -28 -32 -14 -30 18 3 21 -3 11 -27 -8 -23 -7 -25
5 -15 8 7 13 24 11 39 -2 16 4 32 14 39 9 7 11 13 5 13 -6 0 -21 -8 -32 -19z"/>
<path d="M231 353 c-1 -7 -12 -22 -25 -35 -19 -18 -22 -28 -15 -45 5 -13 16
-22 26 -22 17 1 17 2 1 6 -24 6 -23 32 3 59 12 12 19 29 16 36 -4 9 -6 9 -6 1z"/>
<path d="M309 271 c11 -7 10 -11 -5 -20 -11 -6 -14 -11 -8 -11 6 0 17 6 23 13
11 14 5 27 -13 27 -6 0 -5 -4 3 -9z"/>
<path d="M255 250 c3 -5 8 -10 11 -10 2 0 4 5 4 10 0 6 -5 10 -11 10 -5 0 -7
-4 -4 -10z"/>
<path d="M208 198 c13 -5 10 -9 -16 -18 -25 -9 -30 -15 -20 -21 11 -7 11 -9
-1 -9 -8 0 -12 -3 -8 -6 3 -4 23 4 43 17 21 13 49 22 63 22 24 -2 24 -1 6 8
-15 7 -11 8 17 4 20 -3 39 -1 43 5 4 6 -20 9 -69 7 -41 -1 -68 -5 -58 -9z"/>
</g>
</svg>
