<?xml version="1.0" encoding="UTF-8" standalone="no"?>
<!-- Created with Inkscape (http://www.inkscape.org/) -->

<svg
   xmlns:dc="http://purl.org/dc/elements/1.1/"
   xmlns:cc="http://creativecommons.org/ns#"
   xmlns:rdf="http://www.w3.org/1999/02/22-rdf-syntax-ns#"
   xmlns:svg="http://www.w3.org/2000/svg"
   xmlns="http://www.w3.org/2000/svg"
   xmlns:sodipodi="http://sodipodi.sourceforge.net/DTD/sodipodi-0.dtd"
   xmlns:inkscape="http://www.inkscape.org/namespaces/inkscape"
   width="89.195969mm"
   height="22.87075mm"
   viewBox="0 0 89.195969 22.870751"
   version="1.1"
   id="svg435"
   sodipodi:docname="TypoLogo.svg"
   inkscape:version="0.92.5 (2060ec1f9f, 2020-04-08)">
  <defs
     id="defs429">
    <clipPath
       clipPathUnits="userSpaceOnUse"
       id="clipPath20">
      <path
         d="M 0,2000 H 2000 V 0 H 0 Z"
         id="path18"
         inkscape:connector-curvature="0" />
    </clipPath>
  </defs>
  <sodipodi:namedview
     id="base"
     pagecolor="#ffffff"
     bordercolor="#666666"
     borderopacity="1.0"
     inkscape:pageopacity="0.0"
     inkscape:pageshadow="2"
     inkscape:zoom="1.4"
     inkscape:cx="-724.91282"
     inkscape:cy="-273.80209"
     inkscape:document-units="mm"
     inkscape:current-layer="layer1"
     showgrid="false"
     fit-margin-top="0"
     fit-margin-left="0"
     fit-margin-right="0"
     fit-margin-bottom="0"
     inkscape:window-width="4264"
     inkscape:window-height="2338"
     inkscape:window-x="0"
     inkscape:window-y="54"
     inkscape:window-maximized="1" />
  <metadata
     id="metadata432">
    <rdf:RDF>
      <cc:Work
         rdf:about="">
        <dc:format>image/svg+xml</dc:format>
        <dc:type
           rdf:resource="http://purl.org/dc/dcmitype/StillImage" />
        <dc:title></dc:title>
      </cc:Work>
    </rdf:RDF>
  </metadata>
  <g
     inkscape:label="Layer 1"
     inkscape:groupmode="layer"
     id="layer1"
     transform="translate(142.11584,-108.67177)">
    <path
       d="m -142.11584,131.54252 h 89.195971 v -22.87075 h -89.195971 z"
       style="fill:#000000;fill-opacity:1;fill-rule:nonzero;stroke:none;stroke-width:0.02258306"
       id="path12"
       inkscape:connector-curvature="0" />
    <g
       transform="matrix(0.05997222,0,0,-0.05997222,-157.49008,180.07936)"
       id="g14">
      <g
         id="g16"
         clip-path="url(#clipPath20)">
        <g
           id="g22"
           transform="translate(1135.9053,879.9824)">
          <path
             d="m 0,0 c 0,-8.838 4.151,-15.064 10.98,-15.064 6.897,0 10.848,6.561 10.848,15.333 0,8.101 -3.884,15.064 -10.914,15.064 C 4.018,15.333 0,8.771 0,0 m 32.607,0.603 c 0,-14.797 -8.971,-23.769 -22.162,-23.769 -13.39,0 -21.224,10.11 -21.224,22.966 0,13.524 8.636,23.635 21.961,23.635 13.86,0 21.425,-10.378 21.425,-22.832"
             style="fill:#ffffff;fill-opacity:1;fill-rule:nonzero;stroke:none"
             id="path24"
             inkscape:connector-curvature="0" />
        </g>
        <g
           id="g26"
           transform="translate(1183.2383,902.6807)">
          <path
             d="M 0,0 H 27.586 V -8.369 H 10.244 v -10.312 h 16.203 v -8.302 H 10.244 V -45.128 H 0 Z"
             style="fill:#ffffff;fill-opacity:1;fill-rule:nonzero;stroke:none"
             id="path28"
             inkscape:connector-curvature="0" />
        </g>
        <g
           id="g30"
           transform="translate(1248.4482,868.0645)">
          <path
             d="m 0,0 c 2.745,-1.405 6.963,-2.812 11.315,-2.812 4.687,0 7.164,1.942 7.164,4.888 0,2.812 -2.142,4.419 -7.565,6.361 -7.499,2.611 -12.387,6.762 -12.387,13.324 0,7.7 6.428,13.592 17.074,13.592 5.088,0 8.837,-1.072 11.516,-2.277 l -2.276,-8.235 c -1.809,0.87 -5.023,2.142 -9.442,2.142 -4.419,0 -6.561,-2.008 -6.561,-4.352 0,-2.879 2.545,-4.151 8.369,-6.36 7.968,-2.947 11.718,-7.098 11.718,-13.458 0,-7.567 -5.825,-13.995 -18.212,-13.995 -5.155,0 -10.244,1.34 -12.789,2.745 z"
             style="fill:#ffffff;fill-opacity:1;fill-rule:nonzero;stroke:none"
             id="path32"
             inkscape:connector-curvature="0" />
        </g>
        <g
           id="g34"
           transform="translate(1301.0039,879.9824)">
          <path
             d="m 0,0 c 0,-8.838 4.151,-15.064 10.981,-15.064 6.896,0 10.847,6.561 10.847,15.333 0,8.101 -3.884,15.064 -10.914,15.064 C 4.018,15.333 0,8.771 0,0 m 32.607,0.603 c 0,-14.797 -8.971,-23.769 -22.162,-23.769 -13.391,0 -21.224,10.11 -21.224,22.966 0,13.524 8.636,23.635 21.961,23.635 13.86,0 21.425,-10.378 21.425,-22.832"
             style="fill:#ffffff;fill-opacity:1;fill-rule:nonzero;stroke:none"
             id="path36"
             inkscape:connector-curvature="0" />
        </g>
        <g
           id="g38"
           transform="translate(1348.3369,902.6807)">
          <path
             d="m 0,0 h 10.244 v -36.558 h 17.944 v -8.57 H 0 Z"
             style="fill:#ffffff;fill-opacity:1;fill-rule:nonzero;stroke:none"
             id="path40"
             inkscape:connector-curvature="0" />
        </g>
        <g
           id="g42"
           transform="translate(1412.9453,876.7686)">
          <path
             d="m 0,0 -2.813,9.575 c -0.803,2.678 -1.606,6.027 -2.276,8.704 H -5.223 C -5.893,15.602 -6.562,12.187 -7.299,9.575 L -9.977,0 Z m -11.45,-7.633 -3.214,-11.583 H -25.242 L -11.45,25.912 H 1.941 L 15.935,-19.216 H 4.954 L 1.473,-7.633 Z"
             style="fill:#ffffff;fill-opacity:1;fill-rule:nonzero;stroke:none"
             id="path44"
             inkscape:connector-curvature="0" />
        </g>
        <g
           id="g46"
           transform="translate(1442.9365,857.5527)">
          <path
             d="M 0,0 V 45.128 H 11.918 L 21.292,28.59 c 2.679,-4.754 5.356,-10.378 7.365,-15.467 h 0.201 c -0.67,5.959 -0.871,12.052 -0.871,18.814 v 13.191 h 9.374 V 0 H 26.648 l -9.641,17.408 c -2.679,4.821 -5.624,10.647 -7.834,15.936 l -0.2,-0.067 C 9.24,27.317 9.374,20.957 9.374,13.592 V 0 Z"
             style="fill:#ffffff;fill-opacity:1;fill-rule:nonzero;stroke:none"
             id="path48"
             inkscape:connector-curvature="0" />
        </g>
        <g
           id="g50"
           transform="translate(1519.1279,876.7686)">
          <path
             d="m 0,0 -2.813,9.575 c -0.803,2.678 -1.607,6.027 -2.276,8.704 H -5.223 C -5.893,15.602 -6.562,12.187 -7.299,9.575 L -9.977,0 Z m -11.45,-7.633 -3.214,-11.583 H -25.242 L -11.45,25.912 H 1.941 L 15.936,-19.216 H 4.954 L 1.473,-7.633 Z"
             style="fill:#ffffff;fill-opacity:1;fill-rule:nonzero;stroke:none"
             id="path52"
             inkscape:connector-curvature="0" />
        </g>
        <g
           id="g54"
           transform="translate(514.3992,1145.6078)">
          <path
             d="m 0,0 -8.177,26.391 -199.601,-118.2 -1.859,-43.117 122.66,-45.718 -138.271,0.743 v -26.391 l -5.947,-0.743 -24.16,-5.102 h 173.689 l 30.372,15.138 2.973,3.345 -4.088,18.213 -131.581,65.047 138.086,83.074 -48.879,-70.808 21.559,-5.204 -12.638,-24.16 4.089,-1.115 z"
             style="fill:#a7a9ac;fill-opacity:1;fill-rule:nonzero;stroke:none"
             id="path56"
             inkscape:connector-curvature="0" />
        </g>
        <g
           id="g58"
           transform="translate(1380.8467,1145.6078)">
          <path
             d="m 0,0 -10.407,26.391 -190.681,-118.2 -1.858,-43.117 109.279,-50.179 -131.581,0.744 v -21.931 l -5.947,-0.743 -24.16,-5.102 h 200.689 l 3.372,15.138 2.974,5.575 -4.089,17.098 -124.89,63.932 131.395,83.074 -48.879,-70.808 21.559,-5.204 -8.638,-17.16 4.089,-1.115 z"
             style="fill:#a7a9ac;fill-opacity:1;fill-rule:nonzero;stroke:none"
             id="path60"
             inkscape:connector-curvature="0" />
        </g>
        <g
           id="g62"
           transform="translate(495.071,968.4944)">
          <path
             d="m 0,0 c -21.187,3.345 20.072,93.58 52.409,96.287 0,0 13.974,7.821 17.842,-12.098 C 77.685,45.905 21.187,-3.345 0,0 M 49.436,121.359 C 18.585,118.014 -30.851,45.533 -26.019,15.797 c 4.832,-29.736 9.293,-50.821 28.249,-50.821 18.957,0 83.755,61.686 86.977,93.195 3.345,32.709 -8.099,66.622 -39.771,63.188"
             style="fill:#a7a9ac;fill-opacity:1;fill-rule:nonzero;stroke:none"
             id="path64"
             inkscape:connector-curvature="0" />
        </g>
        <g
           id="g66"
           transform="translate(509.9388,1022.2046)">
          <path
             d="m 0,0 2.23,-9.292 -3.345,-1.115 43.117,-102.403 14.496,5.576 9.478,-21.745 2.788,0.558 -7.806,21.187 3.903,3.902 L 15.24,-1.301 Z"
             style="fill:#a7a9ac;fill-opacity:1;fill-rule:nonzero;stroke:none"
             id="path68"
             inkscape:connector-curvature="0" />
        </g>
        <g
           id="g70"
           transform="translate(602.6771,1067.0743)">
          <path
             d="m 0,0 c 0,0 -10.131,-29.028 -19.159,-58.245 -5.062,-16.381 -11.306,-32.821 -11.506,-44.238 -0.548,-31.241 18.213,-31.121 28.992,-31.121 18.668,0 42.745,59.37 42.745,59.37 l -15.982,-59.37 h 13.938 l -3.903,-14.04 5.576,-0.557 39.028,132.695 -3.903,8.363 L 61.887,0 c 0,0 -40.143,-104.713 -60.772,-108.058 -10.631,-1.724 -3.633,22.168 3.486,45.732 6.696,22.161 13.24,44.033 13.24,44.033 L 2.23,-7.7 3.903,0 Z"
             style="fill:#a7a9ac;fill-opacity:1;fill-rule:nonzero;stroke:none"
             id="path72"
             inkscape:connector-curvature="0" />
        </g>
        <g
           id="g74"
           transform="translate(672.4495,943.9625)">
          <path
             d="m 0,0 55.754,111.509 7.249,5.575 7.805,11.709 6.133,-3.345 16.726,20.071 3.346,-1.115 -17.284,-156.011 -10.036,4.46 -5.018,4.359 -1.115,6.691 8.921,97.57 -50.179,-108.721 -4.461,-0.558 -6.69,2.231 -16.727,-33.453 10.594,28.536 -7.248,2.686 z"
             style="fill:#a7a9ac;fill-opacity:1;fill-rule:nonzero;stroke:none"
             id="path76"
             inkscape:connector-curvature="0" />
        </g>
        <g
           id="g78"
           transform="translate(666.6849,1002.0399)">
          <path
             d="m 0,0 104.44,2.314 1.596,-5.595 6.507,-1.601 1.071,-4.361 5.046,-1.326 -0.549,-2.923 -96.773,-5.316 2.994,5.867 -26.688,2.416 0.39,4.087 z"
             style="fill:#a7a9ac;fill-opacity:1;fill-rule:nonzero;stroke:none"
             id="path80"
             inkscape:connector-curvature="0" />
        </g>
        <g
           id="g82"
           transform="translate(713.3439,1108.5536)">
          <path
             d="m 0,0 251.46,24.299 c 0,0 -0.958,-13.352 -1.509,-17.421 L 278.32,8.981 278.189,6.01 250.563,3.875 249.837,4.279 245.96,0.729 14.491,-17.379 l -4.342,2.795 -36.677,12.029 z"
             style="fill:#a7a9ac;fill-opacity:1;fill-rule:nonzero;stroke:none"
             id="path84"
             inkscape:connector-curvature="0" />
        </g>
        <g
           id="g86"
           transform="translate(886.2104,1044.8334)">
          <path
             d="m 0,0 -33.271,-68.706 v -5.018 l -8.156,-20.567 3.695,-12.886 6.133,-2.686 h 7.806 L 17.465,3.217 11.89,13.811 7.5,4.5 Z"
             style="fill:#a7a9ac;fill-opacity:1;fill-rule:nonzero;stroke:none"
             id="path88"
             inkscape:connector-curvature="0" />
        </g>
        <g
           id="g90"
           transform="translate(877.6196,1048.5934)">
          <path
             d="m 0,0 27.26,22.449 -0.916,-3.894 20.387,15.806 -1.603,1.146 0.458,4.352 v 4.164 l 9.19,8.217 -58.212,-38.266 1.603,-2.291 0.229,-2.978 1.833,-1.604 z"
             style="fill:#a7a9ac;fill-opacity:1;fill-rule:nonzero;stroke:none"
             id="path92"
             inkscape:connector-curvature="0" />
        </g>
        <g
           id="g94"
           transform="translate(886.5535,1092.5758)">
          <path
             d="m 0,0 9.85,-17.639 -2.061,7.331 4.581,-8.247 -2.52,0.916 8.705,-13.973 2.291,-0.459 5.039,-10.079 2.062,2.062 -2.062,8.247 3.437,-3.437 1.832,2.291 -0.916,5.04 L 10.996,3.894 8.247,1.833 Z"
             style="fill:#a7a9ac;fill-opacity:1;fill-rule:nonzero;stroke:none"
             id="path96"
             inkscape:connector-curvature="0" />
        </g>
        <g
           id="g98"
           transform="translate(887.6618,958.2728)">
          <path
             d="m 0,0 44.232,102.588 11.151,21.559 -3.584,-21.502 10.646,-3.774 11.151,-70.994 52.409,133.811 3.345,-1.859 -7.062,-19.699 10.408,-4.089 1.486,-7.434 4,-5.576 L 87.26,-9.664 80.941,-20.443 69.879,-24.904 56.641,-6.669 46.09,50.922 13.009,-28.621 l -4.832,3.819 -2.23,6.217 -4.46,0.372 -2.602,6.69 z"
             style="fill:#a7a9ac;fill-opacity:1;fill-rule:nonzero;stroke:none"
             id="path100"
             inkscape:connector-curvature="0" />
        </g>
        <g
           id="g102"
           transform="translate(1092.2449,1058.8167)">
          <path
             d="m 0,0 c 8.363,12.824 17.534,29.116 6.691,30.665 -19.514,2.788 -90.323,-126.563 -73.039,-126.563 17.284,0 54.082,56.312 54.082,56.312 l -1.673,-24.532 -4.46,-7.805 -0.558,-6.133 c 0,0 -31.78,-47.29 -61.329,-47.29 -7.721,0 -14.124,20.275 -13.747,32.805 C -87.536,-58.764 -44.604,46.834 4.46,49.622 38.489,51.555 31.78,17.841 22.302,2.788 21.437,1.414 17.338,-6.06 15.054,-9.106 9.478,-8.921 3.159,-10.036 7.807,-1.085 3.55,-0.832 0,0 0,0"
             style="fill:#a7a9ac;fill-opacity:1;fill-rule:nonzero;stroke:none"
             id="path104"
             inkscape:connector-curvature="0" />
        </g>
        <g
           id="g106"
           transform="translate(1087.2271,1027.4083)">
          <path
             d="m 0,0 -65.047,-162.803 8.177,-2.23 v -7.434 l 9.664,-2.974 -7.433,-29.735 3.717,-2.231 65.418,194.769 -8.921,2.231 z"
             style="fill:#a7a9ac;fill-opacity:1;fill-rule:nonzero;stroke:none"
             id="path108"
             inkscape:connector-curvature="0" />
        </g>
        <g
           id="g110"
           transform="translate(1384.8843,1115.5004)">
          <path
             d="m 0,0 -51.577,-153.139 4,-12.638 4.088,-6.318 13.01,-9.935 60.958,41.529 0.372,7.062 -6.319,-1.487 -4.089,10.408 -46.462,-29.364 43.86,135.669 -4.832,1.487 v 14.868 z"
             style="fill:#a7a9ac;fill-opacity:1;fill-rule:nonzero;stroke:none"
             id="path112"
             inkscape:connector-curvature="0" />
        </g>
        <g
           id="g114"
           transform="translate(1409.7257,946.405)">
          <path
             d="m 0,0 10.779,17.47 -1.858,4.088 56.418,104.075 18.664,1.115 9.664,24.161 h 6.974 L 80.658,-9.934 H 68.392 L 66.162,1.115 61.33,2.974 76.198,97.756 18.585,-9.934 13.009,-7.062 2.602,-7.806 l -9.293,-14.868 -5.575,0.372 z"
             style="fill:#a7a9ac;fill-opacity:1;fill-rule:nonzero;stroke:none"
             id="path116"
             inkscape:connector-curvature="0" />
        </g>
        <g
           id="g118"
           transform="translate(1411.3445,1011.0832)">
          <path
             d="m 0,0 98.5,7.062 0.743,-5.204 8.549,0.372 0.743,-4.088 h 5.947 l -0.371,-4.089 -131.581,-15.611 1.859,11.15 11.522,2.974 z"
             style="fill:#a7a9ac;fill-opacity:1;fill-rule:nonzero;stroke:none"
             id="path120"
             inkscape:connector-curvature="0" />
        </g>
        <g
           id="g122"
           transform="translate(1530.1554,947.52)">
          <path
             d="m 0,0 4.46,-0.558 1.673,-10.491 h 14.496 l 71.923,126.461 -10.593,-0.558 v 7.7 H 74.153 L 20.629,26.205 16.726,106.491 h -5.575 l -1.673,16.063 h -20.071 z"
             style="fill:#a7a9ac;fill-opacity:1;fill-rule:nonzero;stroke:none"
             id="path124"
             inkscape:connector-curvature="0" />
        </g>
        <g
           id="g126"
           transform="translate(1609.3041,1031.1813)">
          <path
             d="m 0,0 -10.407,-36.798 61.701,5.204 -80.286,-50.45 11.151,-9.393 -37.17,-31.223 5.204,-2.973 134.554,84.746 2.23,27.878 -63.932,-3.346 94.483,57.915 -2.23,19.806 16.354,11.894 -1.487,7.434 z"
             style="fill:#a7a9ac;fill-opacity:1;fill-rule:nonzero;stroke:none"
             id="path128"
             inkscape:connector-curvature="0" />
        </g>
        <g
           id="g130"
           transform="translate(762.0284,938.2012)">
          <path
             d="m 0,0 10.036,33.453 -1.115,3.345 43.488,124.89 2.974,-0.743 9.632,11.687 8.581,-9.829 -8.177,-26.39 1.115,-4.089 L 18.956,-4.731 15.24,-5.575 H 9.292 l -10.407,-5.576 z"
             style="fill:#a7a9ac;fill-opacity:1;fill-rule:nonzero;stroke:none"
             id="path132"
             inkscape:connector-curvature="0" />
        </g>
        <g
           id="g134"
           transform="translate(801.0565,933.4705)">
          <path
             d="m 0,0 10.407,31.121 -1.115,5.576 50.923,136.04 4.439,4.626 14.517,-1.28 2.23,-2.974 L 23.181,2.082 8.549,-4.933 Z"
             style="fill:#a7a9ac;fill-opacity:1;fill-rule:nonzero;stroke:none"
             id="path136"
             inkscape:connector-curvature="0" />
        </g>
        <g
           id="g138"
           transform="translate(1047.0924,1017.1082)">
          <path
             d="M 0,0 98.531,14.16 96.2,10.316 97.183,5.271 97.096,1.927 90.762,-5.716 -2.094,-16.12 0.368,-7.26 -4.677,-8.244 0.47,-3.359 Z"
             style="fill:#a7a9ac;fill-opacity:1;fill-rule:nonzero;stroke:none"
             id="path140"
             inkscape:connector-curvature="0" />
        </g>
        <g
           id="g142"
           transform="translate(514.3992,1153.6078)">
          <path
             d="m 0,0 -8.177,26.391 -199.601,-118.2 -1.859,-43.117 122.66,-45.718 -138.271,0.743 v -26.391 l -5.947,-0.743 -24.16,-5.102 h 173.689 l 30.372,15.138 2.973,3.345 -4.088,18.213 -131.581,65.047 138.086,83.074 -48.879,-70.808 21.559,-5.204 -12.638,-24.16 4.089,-1.115 z"
             style="fill:#ffffff;fill-opacity:1;fill-rule:nonzero;stroke:none"
             id="path144"
             inkscape:connector-curvature="0" />
        </g>
        <g
           id="g146"
           transform="translate(1380.8467,1153.6078)">
          <path
             d="m 0,0 -10.407,26.391 -190.681,-118.2 -1.858,-43.117 109.279,-50.179 -131.581,0.744 v -21.931 l -5.947,-0.743 -24.16,-5.102 h 200.689 l 3.372,15.138 2.974,5.575 -4.089,17.098 -124.89,63.932 131.395,83.074 -48.879,-70.808 21.559,-5.204 -8.638,-17.16 4.089,-1.115 z"
             style="fill:#ffffff;fill-opacity:1;fill-rule:nonzero;stroke:none"
             id="path148"
             inkscape:connector-curvature="0" />
        </g>
        <g
           id="g150"
           transform="translate(495.071,976.4944)">
          <path
             d="m 0,0 c -21.187,3.345 20.072,93.58 52.409,96.287 0,0 13.974,7.821 17.842,-12.098 C 77.685,45.905 21.187,-3.345 0,0 M 49.436,121.359 C 18.585,118.014 -30.851,45.533 -26.019,15.797 c 4.832,-29.736 9.293,-50.821 28.249,-50.821 18.957,0 83.755,61.686 86.977,93.195 3.345,32.709 -8.099,66.622 -39.771,63.188"
             style="fill:#ffffff;fill-opacity:1;fill-rule:nonzero;stroke:none"
             id="path152"
             inkscape:connector-curvature="0" />
        </g>
        <g
           id="g154"
           transform="translate(509.9388,1030.2046)">
          <path
             d="m 0,0 2.23,-9.292 -3.345,-1.115 43.117,-102.403 14.496,5.576 9.478,-21.745 2.788,0.558 -7.806,21.187 3.903,3.902 L 15.24,-1.301 Z"
             style="fill:#ffffff;fill-opacity:1;fill-rule:nonzero;stroke:none"
             id="path156"
             inkscape:connector-curvature="0" />
        </g>
        <g
           id="g158"
           transform="translate(602.6771,1075.0743)">
          <path
             d="m 0,0 c 0,0 -10.131,-29.028 -19.159,-58.245 -5.062,-16.381 -11.306,-32.821 -11.506,-44.238 -0.548,-31.241 18.213,-31.121 28.992,-31.121 18.668,0 42.745,59.37 42.745,59.37 l -15.982,-59.37 h 13.938 l -3.903,-14.04 5.576,-0.557 39.028,132.695 -3.903,8.363 L 61.887,0 c 0,0 -40.143,-104.713 -60.772,-108.058 -10.631,-1.724 -3.633,22.168 3.486,45.732 6.696,22.161 13.24,44.033 13.24,44.033 L 2.23,-7.7 3.903,0 Z"
             style="fill:#ffffff;fill-opacity:1;fill-rule:nonzero;stroke:none"
             id="path160"
             inkscape:connector-curvature="0" />
        </g>
        <g
           id="g162"
           transform="translate(672.4495,951.9625)">
          <path
             d="m 0,0 55.754,111.509 7.249,5.575 7.805,11.709 6.133,-3.345 16.726,20.071 3.346,-1.115 -17.284,-156.011 -10.036,4.46 -5.018,4.359 -1.115,6.691 8.921,97.57 -50.179,-108.721 -4.461,-0.558 -6.69,2.231 -16.727,-33.453 10.594,28.536 -7.248,2.686 z"
             style="fill:#ffffff;fill-opacity:1;fill-rule:nonzero;stroke:none"
             id="path164"
             inkscape:connector-curvature="0" />
        </g>
        <g
           id="g166"
           transform="translate(666.6849,1010.0399)">
          <path
             d="m 0,0 104.44,2.314 1.596,-5.595 6.507,-1.601 1.071,-4.361 5.046,-1.326 -0.549,-2.923 -96.773,-5.316 2.994,5.867 -26.688,2.416 0.39,4.087 z"
             style="fill:#ffffff;fill-opacity:1;fill-rule:nonzero;stroke:none"
             id="path168"
             inkscape:connector-curvature="0" />
        </g>
        <g
           id="g170"
           transform="translate(713.3439,1116.5536)">
          <path
             d="m 0,0 251.46,24.299 c 0,0 -0.958,-13.352 -1.509,-17.421 L 278.32,8.981 278.189,6.01 250.563,3.875 249.837,4.279 245.96,0.729 14.491,-17.379 l -4.342,2.795 -36.677,12.029 z"
             style="fill:#ffffff;fill-opacity:1;fill-rule:nonzero;stroke:none"
             id="path172"
             inkscape:connector-curvature="0" />
        </g>
        <g
           id="g174"
           transform="translate(886.2104,1052.8334)">
          <path
             d="m 0,0 -33.271,-68.706 v -5.018 l -8.156,-20.567 3.695,-12.886 6.133,-2.686 h 7.806 L 17.465,3.217 11.89,13.811 7.5,4.5 Z"
             style="fill:#ffffff;fill-opacity:1;fill-rule:nonzero;stroke:none"
             id="path176"
             inkscape:connector-curvature="0" />
        </g>
        <g
           id="g178"
           transform="translate(877.6196,1056.5934)">
          <path
             d="m 0,0 27.26,22.449 -0.916,-3.894 20.387,15.806 -1.603,1.146 0.458,4.352 v 4.164 l 9.19,8.217 -58.212,-38.266 1.603,-2.291 0.229,-2.978 1.833,-1.604 z"
             style="fill:#ffffff;fill-opacity:1;fill-rule:nonzero;stroke:none"
             id="path180"
             inkscape:connector-curvature="0" />
        </g>
        <g
           id="g182"
           transform="translate(886.5535,1100.5758)">
          <path
             d="m 0,0 9.85,-17.639 -2.061,7.331 4.581,-8.247 -2.52,0.916 8.705,-13.973 2.291,-0.459 5.039,-10.079 2.062,2.062 -2.062,8.247 3.437,-3.437 1.832,2.291 -0.916,5.04 L 10.996,3.894 8.247,1.833 Z"
             style="fill:#ffffff;fill-opacity:1;fill-rule:nonzero;stroke:none"
             id="path184"
             inkscape:connector-curvature="0" />
        </g>
        <g
           id="g186"
           transform="translate(887.6618,966.2728)">
          <path
             d="m 0,0 44.232,102.588 11.151,21.559 -3.584,-21.502 10.646,-3.774 11.151,-70.994 52.409,133.811 3.345,-1.859 -7.062,-19.699 10.408,-4.089 1.486,-7.434 4,-5.576 L 87.26,-9.664 80.941,-20.443 69.879,-24.904 56.641,-6.669 46.09,50.922 13.009,-28.621 l -4.832,3.819 -2.23,6.217 -4.46,0.372 -2.602,6.69 z"
             style="fill:#ffffff;fill-opacity:1;fill-rule:nonzero;stroke:none"
             id="path188"
             inkscape:connector-curvature="0" />
        </g>
        <g
           id="g190"
           transform="translate(1092.2449,1066.8167)">
          <path
             d="m 0,0 c 8.363,12.824 17.534,29.116 6.691,30.665 -19.514,2.788 -90.323,-126.563 -73.039,-126.563 17.284,0 54.082,56.312 54.082,56.312 l -1.673,-24.532 -4.46,-7.805 -0.558,-6.133 c 0,0 -31.78,-47.29 -61.329,-47.29 -7.721,0 -14.124,20.275 -13.747,32.805 C -87.536,-58.764 -44.604,46.834 4.46,49.622 38.489,51.555 31.78,17.841 22.302,2.788 21.437,1.414 17.338,-6.06 15.054,-9.106 9.478,-8.921 3.159,-10.036 7.807,-1.085 3.55,-0.832 0,0 0,0"
             style="fill:#ffffff;fill-opacity:1;fill-rule:nonzero;stroke:none"
             id="path192"
             inkscape:connector-curvature="0" />
        </g>
        <g
           id="g194"
           transform="translate(1087.2271,1035.4083)">
          <path
             d="m 0,0 -65.047,-162.803 8.177,-2.23 v -7.434 l 9.664,-2.974 -7.433,-29.735 3.717,-2.231 65.418,194.769 -8.921,2.231 z"
             style="fill:#ffffff;fill-opacity:1;fill-rule:nonzero;stroke:none"
             id="path196"
             inkscape:connector-curvature="0" />
        </g>
        <g
           id="g198"
           transform="translate(1384.8843,1123.5004)">
          <path
             d="m 0,0 -51.577,-153.139 4,-12.638 4.088,-6.318 13.01,-9.935 60.958,41.529 0.372,7.062 -6.319,-1.487 -4.089,10.408 -46.462,-29.364 43.86,135.669 -4.832,1.487 v 14.868 z"
             style="fill:#ffffff;fill-opacity:1;fill-rule:nonzero;stroke:none"
             id="path200"
             inkscape:connector-curvature="0" />
        </g>
        <g
           id="g202"
           transform="translate(1409.7257,954.405)">
          <path
             d="m 0,0 10.779,17.47 -1.858,4.088 56.418,104.075 18.664,1.115 9.664,24.161 h 6.974 L 80.658,-9.934 H 68.392 L 66.162,1.115 61.33,2.974 76.198,97.756 18.585,-9.934 13.009,-7.062 2.602,-7.806 l -9.293,-14.868 -5.575,0.372 z"
             style="fill:#ffffff;fill-opacity:1;fill-rule:nonzero;stroke:none"
             id="path204"
             inkscape:connector-curvature="0" />
        </g>
        <g
           id="g206"
           transform="translate(1411.3445,1019.0832)">
          <path
             d="m 0,0 98.5,7.062 0.743,-5.204 8.549,0.372 0.743,-4.088 h 5.947 l -0.371,-4.089 -131.581,-15.611 1.859,11.15 11.522,2.974 z"
             style="fill:#ffffff;fill-opacity:1;fill-rule:nonzero;stroke:none"
             id="path208"
             inkscape:connector-curvature="0" />
        </g>
        <g
           id="g210"
           transform="translate(1530.1554,955.52)">
          <path
             d="m 0,0 4.46,-0.558 1.673,-10.491 h 14.496 l 71.923,126.461 -10.593,-0.558 v 7.7 H 74.153 L 20.629,26.205 16.726,106.491 h -5.575 l -1.673,16.063 h -20.071 z"
             style="fill:#ffffff;fill-opacity:1;fill-rule:nonzero;stroke:none"
             id="path212"
             inkscape:connector-curvature="0" />
        </g>
        <g
           id="g214"
           transform="translate(1609.3041,1039.1813)">
          <path
             d="m 0,0 -10.407,-36.798 61.701,5.204 -80.286,-50.45 11.151,-9.393 -37.17,-31.223 5.204,-2.973 134.554,84.746 2.23,27.878 -63.932,-3.346 94.483,57.915 -2.23,19.806 16.354,11.894 -1.487,7.434 z"
             style="fill:#ffffff;fill-opacity:1;fill-rule:nonzero;stroke:none"
             id="path216"
             inkscape:connector-curvature="0" />
        </g>
        <g
           id="g218"
           transform="translate(762.0284,946.2012)">
          <path
             d="m 0,0 10.036,33.453 -1.115,3.345 43.488,124.89 2.974,-0.743 9.632,11.687 8.581,-9.829 -8.177,-26.39 1.115,-4.089 L 18.956,-4.731 15.24,-5.575 H 9.292 l -10.407,-5.576 z"
             style="fill:#ffffff;fill-opacity:1;fill-rule:nonzero;stroke:none"
             id="path220"
             inkscape:connector-curvature="0" />
        </g>
        <g
           id="g222"
           transform="translate(801.0565,941.4705)">
          <path
             d="m 0,0 10.407,31.121 -1.115,5.576 50.923,136.04 4.439,4.626 14.517,-1.28 2.23,-2.974 L 23.181,2.082 8.549,-4.933 Z"
             style="fill:#ffffff;fill-opacity:1;fill-rule:nonzero;stroke:none"
             id="path224"
             inkscape:connector-curvature="0" />
        </g>
        <g
           id="g226"
           transform="translate(1047.0924,1025.1082)">
          <path
             d="M 0,0 98.531,14.16 96.2,10.316 97.183,5.271 97.096,1.927 90.762,-5.716 -2.094,-16.12 0.368,-7.26 -4.677,-8.244 0.47,-3.359 Z"
             style="fill:#ffffff;fill-opacity:1;fill-rule:nonzero;stroke:none"
             id="path228"
             inkscape:connector-curvature="0" />
        </g>
      </g>
    </g>
  </g>
</svg>
